<svg width="34" height="34" viewBox="0 0 34 34" fill="none" xmlns="http://www.w3.org/2000/svg">
<path d="M25.4282 33.9955C24.3043 33.9977 23.1911 33.7777 22.1525 33.3483C21.1139 32.919 20.1704 32.2886 19.3762 31.4935C19.0552 31.1725 18.8749 30.7373 18.8749 30.2834C18.8749 29.8295 19.0552 29.3943 19.3762 29.0733C19.6971 28.7524 20.1324 28.5721 20.5862 28.5721C21.0401 28.5721 21.4754 28.7524 21.7963 29.0733C22.2729 29.5512 22.8389 29.9304 23.4622 30.1893C24.0854 30.4482 24.7535 30.5817 25.4284 30.5822C26.1033 30.5826 26.7716 30.4501 27.3952 30.1921C28.0188 29.934 28.5854 29.5556 29.0626 29.0784C29.5399 28.6013 29.9183 28.0347 30.1764 27.4111C30.4345 26.7876 30.5672 26.1192 30.5668 25.4444C30.5664 24.7695 30.4329 24.1014 30.1741 23.4781C29.9153 22.8548 29.5361 22.2887 29.0584 21.8121C28.8994 21.6532 28.7734 21.4645 28.6874 21.2569C28.6014 21.0493 28.5571 20.8268 28.5571 20.602C28.5571 20.3773 28.6014 20.1548 28.6874 19.9472C28.7734 19.7395 28.8994 19.5509 29.0584 19.392C29.3793 19.071 29.8146 18.8907 30.2684 18.8907C30.4931 18.8907 30.7157 18.935 30.9233 19.021C31.1309 19.107 31.3196 19.2331 31.4785 19.392C32.6758 20.5881 33.4913 22.1126 33.8219 23.7724C34.1524 25.4322 33.983 27.1528 33.3352 28.7163C32.6875 30.2799 31.5904 31.6161 30.1828 32.5558C28.7753 33.4956 27.1206 33.9966 25.4282 33.9955Z" fill="#004CBA"/>
<path d="M8.55738 33.9955C6.86511 33.9962 5.21065 33.495 3.80333 32.5552C2.39601 31.6154 1.29909 30.2793 0.651362 28.7159C0.00363484 27.1525 -0.165787 25.4321 0.164535 23.7724C0.494857 22.1127 1.31008 20.5882 2.50704 19.392L6.10047 15.7977C6.42208 15.4801 6.85628 15.3027 7.30827 15.3041C7.76026 15.3055 8.19334 15.4857 8.51296 15.8053C8.83257 16.1249 9.01277 16.5579 9.0142 17.0099C9.01563 17.4619 8.83818 17.8961 8.5206 18.2178L4.92719 21.8121C3.96748 22.7758 3.42929 24.0808 3.43073 25.4409C3.43217 26.8009 3.97312 28.1048 4.93488 29.0665C5.89663 30.0281 7.2006 30.5689 8.56065 30.5702C9.92069 30.5715 11.2257 30.0331 12.1892 29.0733L15.7827 25.479C16.104 25.1599 16.5387 24.9811 16.9916 24.9819C17.4444 24.9827 17.8785 25.1629 18.1987 25.4831C18.5189 25.8034 18.6992 26.2375 18.6999 26.6903C18.7007 27.1432 18.5219 27.5779 18.2028 27.8992L14.6093 31.4935C13.8151 32.2886 12.8716 32.9189 11.833 33.3483C10.7944 33.7777 9.68122 33.9976 8.55738 33.9955Z" fill="#004CBA"/>
<path d="M3.71715 15.125C3.49237 15.1252 3.26975 15.0811 3.0621 14.995C2.85444 14.909 2.66584 14.7827 2.50714 14.6235C0.909109 13.0172 0.0133478 10.8428 0.0163037 8.57697C0.0192596 6.31118 0.920691 4.13905 2.5229 2.53695C4.12512 0.934848 6.29731 0.0335672 8.5631 0.0307683C10.8289 0.0279693 13.0033 0.923881 14.6095 2.52202C14.7684 2.68093 14.8944 2.86959 14.9804 3.07721C15.0664 3.28484 15.1107 3.50738 15.1107 3.73211C15.1107 3.95685 15.0665 4.17938 14.9805 4.38701C14.8944 4.59464 14.7684 4.7833 14.6095 4.94221C14.4506 5.10112 14.2619 5.22718 14.0543 5.31318C13.8467 5.39918 13.6241 5.44345 13.3994 5.44345C13.1747 5.44345 12.9521 5.39919 12.7445 5.31319C12.5369 5.22718 12.3482 5.10113 12.1893 4.94222C11.7129 4.46381 11.1468 4.08407 10.5234 3.82472C9.9 3.56537 9.2316 3.4315 8.55643 3.43079C7.88125 3.43007 7.21257 3.56252 6.58865 3.82055C5.96472 4.07858 5.39781 4.45712 4.92037 4.93451C4.44292 5.4119 4.06431 5.97877 3.80621 6.60266C3.54811 7.22656 3.41558 7.89523 3.41622 8.5704C3.41686 9.24557 3.55064 9.91399 3.80992 10.5374C4.0692 11.1608 4.44888 11.727 4.92723 12.2034C5.16651 12.4428 5.32945 12.7477 5.39546 13.0797C5.46147 13.4116 5.42758 13.7557 5.29807 14.0684C5.16856 14.381 4.94925 14.6483 4.66787 14.8364C4.38649 15.0244 4.05559 15.1249 3.71715 15.125Z" fill="#004CBA"/>
<path d="M26.6749 18.7192C26.3364 18.7191 26.0056 18.6187 25.7242 18.4306C25.4428 18.2426 25.2235 17.9753 25.094 17.6626C24.9645 17.3499 24.9306 17.0059 24.9966 16.6739C25.0626 16.342 25.2256 16.037 25.4649 15.7977L29.0583 12.2034C30.0212 11.2404 30.5621 9.93431 30.562 8.57248C30.562 7.21064 30.0209 5.90462 29.0579 4.94171C28.0949 3.97881 26.7888 3.4379 25.4269 3.43798C24.0651 3.43806 22.7591 3.97912 21.7962 4.94214L18.2027 8.53639C17.8811 8.85398 17.4469 9.03142 16.9949 9.02999C16.5429 9.02856 16.1098 8.84837 15.7902 8.52875C15.4706 8.20914 15.2904 7.77606 15.289 7.32406C15.2876 6.87207 15.4651 6.43787 15.7827 6.11627L19.3761 2.522C20.17 1.72403 21.1135 1.09052 22.1525 0.657758C23.1916 0.224993 24.3059 0.00147572 25.4315 7.28276e-06C26.5571 -0.00146116 27.6719 0.219148 28.7121 0.6492C29.7523 1.07925 30.6975 1.7103 31.4934 2.50619C32.2893 3.30208 32.9205 4.24718 33.3506 5.28736C33.7807 6.32753 34.0014 7.44235 34 8.56795C33.9986 9.69355 33.7752 10.8078 33.3425 11.8469C32.9098 12.886 32.2763 13.8296 31.4784 14.6235L27.8849 18.2177C27.7262 18.3769 27.5376 18.5032 27.33 18.5892C27.1223 18.6753 26.8997 18.7194 26.6749 18.7192Z" fill="#004CBA"/>
<path d="M17.0178 28.4257C16.7931 28.4259 16.5704 28.3818 16.3628 28.2957C16.1551 28.2097 15.9665 28.0834 15.8078 27.9242L6.09381 18.2103C5.93485 18.0514 5.80875 17.8628 5.72272 17.6552C5.63669 17.4475 5.59241 17.225 5.59241 17.0003C5.59241 16.7755 5.63669 16.553 5.72272 16.3453C5.80875 16.1377 5.93485 15.9491 6.09381 15.7902L15.776 6.10883C15.9349 5.94987 16.1235 5.82377 16.3312 5.73774C16.5388 5.6517 16.7613 5.60742 16.9861 5.60742C17.2108 5.60742 17.4334 5.6517 17.641 5.73774C17.8486 5.82377 18.0373 5.94987 18.1961 6.10883L27.9101 15.8228C28.0691 15.9817 28.1952 16.1703 28.2812 16.3779C28.3672 16.5856 28.4115 16.8081 28.4115 17.0328C28.4115 17.2576 28.3672 17.4801 28.2812 17.6878C28.1952 17.8954 28.0691 18.084 27.9101 18.2429L18.2279 27.9243C18.0692 28.0835 17.8806 28.2097 17.6729 28.2958C17.4652 28.3818 17.2426 28.426 17.0178 28.4257ZM9.724 17.0003L17.0178 24.2941L24.2799 17.0328L16.9861 9.73902L9.724 17.0003Z" fill="#004CBA"/>
</svg>
