<svg width="29" height="41" viewBox="0 0 29 41" fill="none" xmlns="http://www.w3.org/2000/svg">
<path d="M1.44462 0C0.647579 0.00282008 0.00282022 0.647579 0 1.44462V39.1407C0 41.0748 2.90057 41.0748 2.90057 39.1407V2.90057H11.6051V4.32819C11.6046 4.33424 11.6056 4.33917 11.6051 4.34518H8.70453C8.51289 4.34408 8.32293 4.38096 8.14563 4.45371C7.96833 4.52645 7.8072 4.6336 7.67156 4.76898C7.53591 4.90437 7.42845 5.06528 7.35536 5.24244C7.28227 5.4196 7.24502 5.60949 7.24575 5.80113V8.6932C6.86112 8.69474 6.49286 8.84899 6.22194 9.12202C5.95103 9.39506 5.79967 9.76452 5.80113 10.1491V15.4857C5.70193 15.7836 5.70193 16.1056 5.80113 16.4035V21.6353C5.79735 21.6956 5.79735 21.7562 5.80113 21.8166V27.5356C5.79967 27.9202 5.95103 28.2896 6.22194 28.5627C6.49286 28.8357 6.86112 28.99 7.24575 28.9915H8.70453V31.8921C8.70606 32.2747 8.85875 32.6413 9.12934 32.9119C9.39993 33.1825 9.76649 33.3352 10.1492 33.3367H11.6051V36.0248C11.6051 37.4834 12.3187 38.7616 13.3075 39.5146C14.2963 40.2675 15.4957 40.5853 16.6783 40.5853C17.8608 40.5853 19.0631 40.2675 20.0519 39.5146C21.0407 38.7616 21.7542 37.4834 21.7542 36.0248V34.7813C21.7543 34.0964 21.9705 33.7653 22.3434 33.467C22.7163 33.1687 23.3105 32.9741 23.9268 32.9741C24.5432 32.9741 25.1373 33.1686 25.5103 33.467C25.8832 33.7653 26.0994 34.0964 26.0994 34.7813V39.1407C26.0994 41.0748 29 41.0748 29 39.1407V34.7813C29 33.2907 28.307 31.996 27.3203 31.2066C26.3336 30.4172 25.1233 30.0735 23.9268 30.0735C22.7304 30.0735 21.5201 30.4172 20.5334 31.2066C19.5467 31.996 18.8537 33.2907 18.8537 34.7813V36.0248C18.8537 36.6369 18.6552 36.9208 18.2843 37.2032C17.9135 37.4856 17.3086 37.6847 16.6783 37.6847C16.0479 37.6847 15.4345 37.4856 15.0637 37.2032C14.6928 36.9208 14.4943 36.6369 14.4943 36.0248V33.3367H15.9503C16.3329 33.3352 16.6995 33.1825 16.9701 32.9119C17.2407 32.6413 17.3934 32.2747 17.3949 31.8921V28.9915H18.8537C19.2383 28.99 19.6066 28.8357 19.8775 28.5627C20.1484 28.2896 20.2998 27.9202 20.2983 27.5356V10.1491C20.2998 9.76452 20.1484 9.39506 19.8775 9.12202C19.6066 8.84899 19.2383 8.69474 18.8537 8.6932V5.80113C18.8544 5.60949 18.8172 5.4196 18.7441 5.24244C18.671 5.06528 18.5635 4.90437 18.4279 4.76898C18.2922 4.6336 18.1311 4.52645 17.9538 4.45371C17.7765 4.38096 17.5865 4.34408 17.3949 4.34518H14.4943C14.4939 4.33917 14.4948 4.33424 14.4943 4.32819V1.44462C14.4915 0.647579 13.8468 0.00282008 13.0497 0H1.44462ZM10.1492 7.24858H15.9503V8.6932H10.1492V7.24858ZM8.70453 11.5938H17.3949V26.0909H8.70453V23.1875H10.1492C10.5282 23.1791 10.8889 23.0226 11.154 22.7516C11.4192 22.4805 11.5676 22.1164 11.5676 21.7373C11.5676 21.3581 11.4192 20.994 11.154 20.7229C10.8889 20.4519 10.5282 20.2954 10.1492 20.287H8.70453V17.3977H10.1492C10.5342 17.3977 10.9034 17.2448 11.1757 16.9725C11.4479 16.7003 11.6009 16.331 11.6009 15.946C11.6009 15.561 11.4479 15.1918 11.1757 14.9195C10.9034 14.6473 10.5342 14.4943 10.1492 14.4943H8.70453V11.5938ZM11.6051 28.9915H14.4943V30.4361H11.6051V28.9915Z" fill="#004CBA"/>
</svg>
