<svg width="39" height="39" viewBox="0 0 39 39" fill="none" xmlns="http://www.w3.org/2000/svg">
<path d="M15.7327 34.7393C13.462 34.7393 11.2423 34.0659 9.35436 32.8043C7.46642 31.5427 5.99505 29.7495 5.12633 27.6516C4.25762 25.5536 4.03059 23.2452 4.47396 21.0182C4.91733 18.7912 6.01118 16.7458 7.61717 15.1405L16.4744 6.28419C17.5677 5.24038 19.0211 4.65796 20.5326 4.65796C22.0442 4.65796 23.4976 5.24038 24.5909 6.28419L32.7082 14.4015C33.2413 14.9343 33.6642 15.567 33.9528 16.2633C34.2413 16.9596 34.3898 17.706 34.3898 18.4597C34.3898 19.2135 34.2413 19.9598 33.9528 20.6561C33.6642 21.3525 33.2413 21.9851 32.7082 22.518L26.6209 28.6062C26.2621 28.965 25.7755 29.1665 25.2682 29.1665C24.7608 29.1665 24.2742 28.965 23.9154 28.6062C23.5567 28.2474 23.3551 27.7609 23.3551 27.2535C23.3551 26.7461 23.5567 26.2595 23.9154 25.9007L30.0028 19.8125C30.3615 19.4539 30.5631 18.9676 30.5633 18.4604C30.5634 17.9532 30.3622 17.4667 30.0037 17.1079L21.8855 8.98962C21.5212 8.64185 21.037 8.44772 20.5334 8.44755C20.0298 8.44738 19.5454 8.64117 19.1809 8.98869L10.3217 17.8469C9.61084 18.5575 9.04697 19.4012 8.66227 20.3298C8.27756 21.2584 8.07955 22.2537 8.07955 23.2588C8.07955 24.2639 8.27756 25.2592 8.66227 26.1878C9.04697 27.1163 9.61084 27.96 10.3217 28.6707C11.4009 29.7329 12.7676 30.4557 14.2531 30.7497C15.7385 31.0437 17.2776 30.8962 18.6801 30.3252C18.9121 30.2286 19.1608 30.1787 19.4121 30.1783C19.6634 30.1779 19.9123 30.2269 20.1446 30.3227C20.3769 30.4185 20.5881 30.5591 20.766 30.7365C20.944 30.9139 21.0853 31.1246 21.1819 31.3565C21.2784 31.5885 21.3283 31.8373 21.3288 32.0886C21.3292 32.3398 21.2801 32.5887 21.1843 32.8211C21.0886 33.0534 20.948 33.2646 20.7706 33.4425C20.5932 33.6205 20.3825 33.7618 20.1505 33.8584C18.7509 34.4422 17.2491 34.7417 15.7327 34.7393Z" fill="#004CBA"/>
<path d="M1.91286 38.9927C1.53451 38.9927 1.16468 38.8804 0.850119 38.6702C0.535559 38.4599 0.290394 38.1611 0.145617 37.8116C0.00083983 37.462 -0.0370486 37.0774 0.0367414 36.7063C0.110531 36.3352 0.292687 35.9944 0.560179 35.7268L7.61631 28.6707C7.97597 28.3162 8.46117 28.1184 8.96611 28.1203C9.47105 28.1221 9.95478 28.3235 10.3118 28.6806C10.6689 29.0376 10.8703 29.5214 10.8721 30.0263C10.874 30.5313 10.6761 31.0164 10.3217 31.3761L3.26554 38.4322C3.08811 38.6102 2.87727 38.7513 2.64514 38.8475C2.413 38.9437 2.16414 38.993 1.91286 38.9927Z" fill="#004CBA"/>
<path d="M27.2973 13.6086C26.9189 13.6085 26.5491 13.4962 26.2345 13.286C25.92 13.0758 25.6748 12.777 25.53 12.4274C25.3852 12.0779 25.3474 11.6932 25.4211 11.3222C25.4949 10.9511 25.6771 10.6102 25.9446 10.3426L31.6769 4.61031C32.0364 4.25527 32.5218 4.05689 33.0271 4.05848C33.5324 4.06007 34.0165 4.2615 34.3738 4.61879C34.7311 4.97609 34.9326 5.46022 34.9341 5.96551C34.9357 6.47079 34.7374 6.95619 34.3823 7.31572L28.65 13.048C28.4726 13.226 28.2617 13.3671 28.0296 13.4633C27.7974 13.5595 27.5485 13.6089 27.2973 13.6086Z" fill="#004CBA"/>
<path d="M37.0877 11.9352C36.8364 11.9355 36.5875 11.8861 36.3554 11.7899C36.1233 11.6937 35.9124 11.5526 35.735 11.3746L27.6176 3.25722C27.2625 2.89768 27.0642 2.41228 27.0658 1.907C27.0674 1.40171 27.2688 0.917578 27.6261 0.560292C27.9834 0.203007 28.4676 0.00158849 28.9728 9.35549e-06C29.4781 -0.00156978 29.9635 0.196819 30.323 0.551864L38.4404 8.66917C38.7079 8.93674 38.8901 9.27761 38.9639 9.6487C39.0377 10.0198 38.9998 10.4044 38.855 10.754C38.7102 11.1035 38.465 11.4023 38.1505 11.6125C37.8359 11.8228 37.466 11.9351 37.0877 11.9352Z" fill="#004CBA"/>
<path d="M24.8719 28.6903C24.6206 28.6906 24.3718 28.6412 24.1396 28.545C23.9075 28.4488 23.6966 28.3077 23.5192 28.1297L15.3878 19.9984C15.0344 19.6385 14.8375 19.1536 14.8397 18.6493C14.842 18.1449 15.0434 17.6618 15.4 17.3052C15.7567 16.9485 16.2397 16.7472 16.7441 16.7449C17.2485 16.7426 17.7333 16.9396 18.0932 17.293L26.2246 25.4244C26.4921 25.692 26.6742 26.0328 26.748 26.4039C26.8218 26.775 26.7839 27.1596 26.6392 27.5092C26.4944 27.8587 26.2492 28.1575 25.9346 28.3678C25.6201 28.578 25.2503 28.6902 24.8719 28.6903Z" fill="#004CBA"/>
</svg>
