<svg width="38" height="38" viewBox="0 0 38 38" fill="none" xmlns="http://www.w3.org/2000/svg">
<path d="M9.31108 19.8314C9.31108 19.8314 9.1996 19.6137 8.60613 17.4214C7.88883 14.4832 11.3176 13.2714 12.5521 15.3921C12.5521 15.3921 13.0944 16.507 14.7707 19.8691C16.447 23.2312 16.3843 25.2008 16.3843 25.2008V32.0976C16.3843 34.7104 14.5281 36 12.8753 36H8.70054C6.47599 36 4.62946 35.2087 3.98923 32.0844C3.1496 27.9671 2 21.3477 2 16.0812C2 7.78531 10.4688 3.04444 11.2105 2.45716C13.2333 1.07726 15.4397 3.07601 14.6653 5.06598L8.97736 15.176" stroke="#004CBA" stroke-width="3" stroke-linecap="round" stroke-linejoin="round"/>
<path d="M13.7692 9.2017C14.9292 7.52524 16.9159 9.29156 16.2521 11.5558L14.6292 17.6923" stroke="#004CBA" stroke-width="3" stroke-linecap="round" stroke-linejoin="round"/>
<path d="M28.6889 19.8314C28.6889 19.8314 28.8004 19.6137 29.3939 17.4214C30.1112 14.4832 26.6824 13.2714 25.4479 15.3921C25.4479 15.3921 24.9056 16.507 23.2293 19.8691C21.553 23.2312 21.6157 25.2008 21.6157 25.2008V32.0976C21.6157 34.7104 23.4719 36 25.1247 36H29.2995C31.524 36 33.3705 35.2087 34.0108 32.0844C34.8504 27.9671 36 21.3477 36 16.0812C36 7.78531 27.5312 3.04444 26.7895 2.45716C24.7667 1.07726 22.5603 3.07601 23.3347 5.06598L29.0226 15.176" stroke="#004CBA" stroke-width="3" stroke-linecap="round" stroke-linejoin="round"/>
<path d="M25.5385 9.2017C23.7985 7.52524 20.8184 9.29156 21.8142 11.5558L24.2486 17.6923" stroke="#004CBA" stroke-width="3" stroke-linecap="round" stroke-linejoin="round"/>
</svg>
