<svg width="39" height="38" viewBox="0 0 39 38" fill="none" xmlns="http://www.w3.org/2000/svg">
<path d="M6.71992 24.8054L3.01555 21.101L7.38416 16.7324L21.8184 31.1667L17.4499 35.5353L13.9499 32.0353M6.71992 24.8054L2.73452 28.7908L6.31116 32.3674M6.71992 24.8054L13.9499 32.0353M13.9499 32.0353L9.96446 36.0207L6.31116 32.3674M6.31116 32.3674L3.62869 35.0499" stroke="#004CBA" stroke-width="2.5"/>
<path d="M25.7272 5.79802L22.0228 2.09365L17.6542 6.46225L24.8713 13.6794M25.7272 5.79802L29.7126 1.81262L33.2892 5.38926M25.7272 5.79802L32.9571 13.0279M24.8713 13.6794L32.0885 20.8965L36.4571 16.5279L32.9571 13.0279M24.8713 13.6794L14.6013 23.9494M33.2892 5.38926L36.9425 9.04255L32.9571 13.0279M33.2892 5.38926L35.9717 2.70678" stroke="#004CBA" stroke-width="2.5"/>
</svg>
