<svg width="74" height="60" viewBox="0 0 74 60" fill="none" xmlns="http://www.w3.org/2000/svg">
<path d="M27.377 28.6214H34.5088C38.4312 28.6214 42.193 30.1874 44.9665 32.9748C47.7401 35.7623 49.2983 39.5429 49.2983 43.4849H26.2891L26.2924 46.788H52.5848V43.4849C52.5745 39.9704 51.5641 36.5322 49.6729 33.5759H59.1579C62.2646 33.575 65.3078 34.4592 67.9348 36.126C70.5617 37.7927 72.6648 40.1737 74 42.9928C66.2273 53.3015 53.6431 60 39.4386 60C30.3645 60 22.6772 58.0512 16.4328 54.6326V23.9014C20.4312 24.477 24.207 26.1054 27.377 28.6214ZM9.85966 20.3639C10.6646 20.364 11.4416 20.661 12.0431 21.1986C12.6447 21.7362 13.029 22.477 13.1232 23.2804L13.1462 23.6669V53.394C13.1462 54.27 12.7999 55.1101 12.1836 55.7296C11.5672 56.349 10.7313 56.697 9.85966 56.697H3.28655C2.4149 56.697 1.57896 56.349 0.962609 55.7296C0.346261 55.1101 0 54.27 0 53.394V23.6669C0 22.7909 0.346261 21.9507 0.962609 21.3313C1.57896 20.7119 2.4149 20.3639 3.28655 20.3639H9.85966ZM41.5617 2.44502L42.7252 3.61759L43.8886 2.44832C44.6505 1.67614 45.5566 1.06279 46.5549 0.643494C47.5533 0.224196 48.6242 0.00720513 49.7062 0.00497894C50.7882 0.00275275 51.86 0.215335 52.8601 0.630521C53.8601 1.04571 54.7687 1.65532 55.5337 2.42436C56.2987 3.1934 56.905 4.10673 57.3179 5.1119C57.7307 6.11707 57.9419 7.1943 57.9394 8.28173C57.9369 9.36916 57.7206 10.4454 57.3032 11.4486C56.8857 12.4518 56.2751 13.3623 55.5066 14.1278L42.7252 26.9699L29.9405 14.1212C29.1721 13.3555 28.5619 12.4448 28.1447 11.4415C27.7274 10.4382 27.5115 9.36187 27.5093 8.27443C27.5071 7.187 27.7186 6.10984 28.1317 5.10478C28.5449 4.09973 29.1514 3.18657 29.9166 2.41775C30.6819 1.64892 31.5906 1.03957 32.5908 0.624668C33.591 0.209766 34.6628 -0.00251135 35.7448 2.24174e-05C36.8268 0.00255618 37.8977 0.219851 38.8959 0.639433C39.8942 1.05901 40.8001 1.67262 41.5617 2.44502Z" fill="white"/>
</svg>
