<svg width="105" height="21" viewBox="0 0 105 21" fill="none" xmlns="http://www.w3.org/2000/svg">
<path d="M9.73915 2.34164C9.97864 1.60459 11.0214 1.60459 11.2608 2.34164L12.6778 6.70253C12.7849 7.03215 13.0921 7.25532 13.4386 7.25532H18.0239C18.7989 7.25532 19.1211 8.24701 18.4942 8.70253L14.7846 11.3977C14.5042 11.6014 14.3869 11.9625 14.494 12.2921L15.9109 16.653C16.1504 17.3901 15.3068 18.003 14.6798 17.5475L10.9702 14.8523C10.6898 14.6486 10.3102 14.6486 10.0298 14.8523L6.32017 17.5475C5.6932 18.003 4.84962 17.3901 5.0891 16.653L6.50604 12.2921C6.61314 11.9625 6.49581 11.6014 6.21542 11.3977L2.50583 8.70254C1.87886 8.24701 2.20107 7.25532 2.97605 7.25532H7.56137C7.90795 7.25532 8.21511 7.03215 8.32221 6.70254L9.73915 2.34164Z" fill="#DAAA62"/>
<path d="M30.7392 2.34164C30.9786 1.60459 32.0214 1.60459 32.2608 2.34164L33.6778 6.70253C33.7849 7.03215 34.0921 7.25532 34.4386 7.25532H39.0239C39.7989 7.25532 40.1211 8.24701 39.4942 8.70253L35.7846 11.3977C35.5042 11.6014 35.3869 11.9625 35.494 12.2921L36.9109 16.653C37.1504 17.3901 36.3068 18.003 35.6798 17.5475L31.9702 14.8523C31.6898 14.6486 31.3102 14.6486 31.0298 14.8523L27.3202 17.5475C26.6932 18.003 25.8496 17.3901 26.0891 16.653L27.506 12.2921C27.6131 11.9625 27.4958 11.6014 27.2154 11.3977L23.5058 8.70254C22.8789 8.24701 23.2011 7.25532 23.9761 7.25532H28.5614C28.9079 7.25532 29.2151 7.03215 29.3222 6.70254L30.7392 2.34164Z" fill="#DAAA62"/>
<path d="M51.7392 2.34164C51.9786 1.60459 53.0214 1.60459 53.2608 2.34164L54.6778 6.70253C54.7849 7.03215 55.0921 7.25532 55.4386 7.25532H60.0239C60.7989 7.25532 61.1211 8.24701 60.4942 8.70253L56.7846 11.3977C56.5042 11.6014 56.3869 11.9625 56.494 12.2921L57.9109 16.653C58.1504 17.3901 57.3068 18.003 56.6798 17.5475L52.9702 14.8523C52.6898 14.6486 52.3102 14.6486 52.0298 14.8523L48.3202 17.5475C47.6932 18.003 46.8496 17.3901 47.0891 16.653L48.506 12.2921C48.6131 11.9625 48.4958 11.6014 48.2154 11.3977L44.5058 8.70254C43.8789 8.24701 44.2011 7.25532 44.9761 7.25532H49.5614C49.9079 7.25532 50.2151 7.03215 50.3222 6.70254L51.7392 2.34164Z" fill="#DAAA62"/>
<path d="M72.7392 2.34164C72.9786 1.60459 74.0214 1.60459 74.2608 2.34164L75.6778 6.70253C75.7849 7.03215 76.0921 7.25532 76.4386 7.25532H81.0239C81.7989 7.25532 82.1211 8.24701 81.4942 8.70253L77.7846 11.3977C77.5042 11.6014 77.3869 11.9625 77.494 12.2921L78.9109 16.653C79.1504 17.3901 78.3068 18.003 77.6798 17.5475L73.9702 14.8523C73.6898 14.6486 73.3102 14.6486 73.0298 14.8523L69.3202 17.5475C68.6932 18.003 67.8496 17.3901 68.0891 16.653L69.506 12.2921C69.6131 11.9625 69.4958 11.6014 69.2154 11.3977L65.5058 8.70254C64.8789 8.24701 65.2011 7.25532 65.9761 7.25532H70.5614C70.9079 7.25532 71.2151 7.03215 71.3222 6.70254L72.7392 2.34164Z" fill="#DAAA62"/>
<path d="M93.7392 2.34164C93.9786 1.60459 95.0214 1.60459 95.2608 2.34164L96.6778 6.70253C96.7849 7.03215 97.0921 7.25532 97.4386 7.25532H102.024C102.799 7.25532 103.121 8.24701 102.494 8.70253L98.7846 11.3977C98.5042 11.6014 98.3869 11.9625 98.494 12.2921L99.9109 16.653C100.15 17.3901 99.3068 18.003 98.6798 17.5475L94.9702 14.8523C94.6898 14.6486 94.3102 14.6486 94.0298 14.8523L90.3202 17.5475C89.6932 18.003 88.8496 17.3901 89.0891 16.653L90.506 12.2921C90.6131 11.9625 90.4958 11.6014 90.2154 11.3977L86.5058 8.70254C85.8789 8.24701 86.2011 7.25532 86.9761 7.25532H91.5614C91.9079 7.25532 92.2151 7.03215 92.3222 6.70254L93.7392 2.34164Z" fill="#DAAA62"/>
</svg>
